<?xml version="1.0" standalone="no"?>
<!DOCTYPE svg PUBLIC "-//W3C//DTD SVG 20010904//EN"
 "http://www.w3.org/TR/2001/REC-SVG-20010904/DTD/svg10.dtd">
<svg version="1.0" xmlns="http://www.w3.org/2000/svg"
 width="1124.000000pt" height="1124.000000pt" viewBox="0 0 1124.000000 1124.000000"
 preserveAspectRatio="xMidYMid meet">
<metadata>
Created by potrace 1.14, written by Peter Selinger 2001-2017
</metadata>
<g transform="translate(0.000000,1124.000000) scale(0.100000,-0.100000)"
fill="#000000" stroke="none">
<path d="M4354 9314 c22 -19 60 -47 85 -62 25 -14 48 -29 51 -32 3 -4 32 -25
65 -47 34 -23 67 -48 74 -57 7 -9 19 -16 26 -16 23 0 161 -146 208 -222 39
-63 127 -154 165 -170 27 -11 162 -220 162 -251 0 -8 -26 -30 -57 -47 -109
-61 -241 -181 -286 -260 -11 -19 -26 -42 -32 -50 -25 -31 -56 -136 -62 -209
-6 -88 10 -209 36 -266 10 -22 23 -54 29 -70 5 -17 26 -56 46 -88 32 -49 41
-57 69 -58 18 -1 24 -3 15 -6 -21 -5 -23 -25 -6 -52 15 -25 4 -49 -29 -62 -23
-9 -30 -7 -45 13 -10 13 -18 27 -18 32 0 5 -11 24 -25 42 -14 18 -25 38 -25
45 0 6 -11 22 -25 35 -14 13 -25 29 -25 36 0 7 -25 39 -55 71 -30 32 -55 62
-55 67 0 4 -11 11 -25 14 -15 4 -25 13 -25 25 0 11 -34 45 -86 86 -80 64 -85
70 -80 98 31 152 13 255 -77 440 -35 72 -72 149 -82 169 -40 86 -130 150 -258
184 -108 29 -103 13 29 -92 46 -37 84 -72 84 -78 0 -6 8 -16 19 -23 27 -17 44
-102 38 -192 -5 -81 5 -218 24 -316 11 -59 32 -114 70 -187 11 -21 25 -83 34
-147 18 -140 43 -190 142 -293 66 -69 86 -85 142 -114 25 -14 55 -33 66 -43
11 -10 30 -24 43 -30 18 -9 21 -17 16 -39 -7 -28 -65 -132 -74 -132 -3 0 -21
23 -40 51 -49 73 -125 153 -138 145 -6 -3 -14 5 -19 18 -22 64 -498 406 -564
406 -11 0 -34 14 -51 30 -16 17 -39 30 -51 30 -11 0 -32 11 -46 24 -35 31
-316 176 -343 176 -12 0 -29 6 -37 14 -31 27 -315 139 -366 144 -27 2 -59 12
-70 21 -47 39 -157 71 -475 137 -331 69 -618 50 -776 -51 -137 -88 -185 -239
-149 -467 10 -62 24 -122 30 -133 7 -11 18 -38 25 -60 31 -99 136 -258 252
-380 103 -109 127 -123 219 -130 98 -8 187 -25 198 -39 5 -6 11 -48 14 -94 2
-45 6 -83 8 -85 2 -2 32 -25 66 -50 67 -51 97 -88 115 -139 6 -18 22 -50 35
-70 13 -21 23 -44 23 -53 0 -49 44 32 55 100 3 22 12 72 20 110 8 39 17 92 21
119 7 56 45 101 79 92 73 -18 206 -48 240 -55 52 -11 161 -38 255 -63 98 -27
113 -45 129 -144 7 -44 17 -97 22 -119 6 -22 13 -62 15 -90 3 -27 20 -120 37
-205 l32 -155 64 -8 c35 -4 66 -5 69 -2 3 3 9 51 13 108 14 185 56 266 182
351 45 30 94 58 110 61 34 9 42 21 27 40 -10 12 -9 15 8 15 39 0 82 -13 81
-24 -4 -30 4 -34 84 -41 75 -6 360 7 465 21 28 4 42 2 42 -5 0 -6 -11 -11 -24
-11 -13 0 -26 -7 -30 -15 -4 -10 -20 -15 -50 -15 -25 0 -48 -5 -51 -11 -15
-23 17 -68 63 -90 51 -24 135 -78 140 -91 2 -4 9 -8 15 -8 16 0 110 -101 125
-134 23 -51 39 -32 47 58 8 104 21 120 92 114 26 -3 144 -13 262 -23 231 -20
241 -23 256 -83 4 -15 17 -49 29 -77 13 -27 42 -99 66 -160 24 -60 52 -119 62
-131 10 -11 18 -33 18 -47 0 -15 7 -30 15 -33 9 -4 15 -19 15 -36 0 -16 7 -42
15 -58 32 -63 56 -20 40 73 -5 34 -13 67 -17 73 -5 7 -2 14 7 17 11 5 14 42
14 207 1 116 5 209 11 220 13 25 24 28 170 41 69 6 151 13 183 16 67 6 98 -12
95 -56 -1 -14 -1 -54 0 -88 2 -77 17 -82 57 -20 36 53 137 153 164 162 12 3
21 11 21 16 0 5 4 9 9 9 5 0 30 12 57 27 62 35 91 46 234 89 139 42 243 55
389 47 l111 -6 77 -76 c43 -42 84 -85 92 -95 23 -31 31 0 29 129 0 66 2 129 5
140 9 26 35 37 185 75 100 25 154 45 159 57 4 9 25 13 69 13 60 0 65 -2 75
-26 6 -16 10 -168 10 -380 0 -285 3 -355 14 -364 21 -17 169 3 197 28 11 9 29
13 49 10 66 -10 246 68 300 130 l30 33 -2 337 c0 185 2 345 6 354 8 21 47 34
150 48 86 12 169 29 253 53 41 12 52 12 52 2 0 -7 9 -24 20 -38 16 -20 20 -40
20 -95 0 -39 5 -74 10 -77 16 -10 44 12 156 116 111 106 202 213 285 339 50
75 68 106 100 172 5 10 9 28 9 42 0 13 6 29 14 35 22 19 49 157 49 252 -1 87
-23 172 -58 223 -8 11 -15 27 -15 36 0 9 -15 30 -34 48 l-34 32 -111 0 c-62 0
-121 -5 -135 -12 -21 -9 -29 -8 -43 4 -25 23 -84 36 -135 32 -54 -4 -77 8 -59
30 16 19 6 36 -22 36 -19 1 -20 2 -6 10 11 6 36 6 69 0 29 -6 55 -10 57 -10 3
0 3 -6 0 -14 -11 -29 21 -38 138 -39 82 -1 118 2 127 11 18 18 -7 35 -91 63
-55 18 -90 22 -216 23 -115 1 -149 -2 -147 -12 1 -8 -15 -12 -55 -12 -122 0
-210 -10 -273 -29 -36 -12 -73 -21 -82 -21 -16 0 -113 -34 -173 -61 -11 -4
-54 -22 -95 -38 -41 -16 -113 -47 -160 -69 -47 -21 -92 -42 -100 -46 -8 -4
-42 -22 -75 -41 -33 -19 -106 -57 -163 -86 -57 -28 -115 -64 -130 -79 -15 -15
-44 -32 -64 -39 -21 -7 -40 -21 -43 -32 -4 -10 -15 -19 -25 -19 -20 0 -67 -29
-295 -179 -38 -25 -82 -53 -96 -61 -45 -25 -109 -69 -247 -169 -73 -53 -161
-116 -196 -141 -35 -25 -78 -58 -96 -73 -19 -16 -42 -27 -54 -25 -27 4 -58 66
-64 129 -4 46 -3 48 24 55 65 16 191 123 259 221 58 82 98 163 114 231 7 29
28 77 46 107 66 111 86 196 100 445 20 325 31 354 170 429 39 21 72 46 74 56
9 46 -189 -25 -262 -94 -69 -64 -203 -301 -213 -377 -3 -22 -9 -48 -14 -59
-14 -32 -21 -92 -27 -217 -5 -115 -5 -118 -28 -118 -26 0 -125 -84 -125 -106
0 -8 -10 -19 -22 -25 -26 -11 -79 -85 -102 -139 -8 -19 -17 -38 -21 -42 -4 -4
-24 -44 -45 -89 -21 -45 -43 -86 -48 -91 -13 -13 -67 18 -79 46 -12 29 -5 66
13 66 8 0 22 17 31 38 8 20 21 41 29 45 25 15 83 165 98 258 7 40 -8 94 -24
84 -13 -8 -60 5 -60 17 0 5 12 7 28 4 43 -10 65 12 57 57 -4 20 -11 37 -16 37
-5 0 -6 14 -2 30 7 37 -20 72 -52 68 -12 -1 -29 5 -38 14 -24 24 -232 26 -258
2 -16 -14 -19 -14 -40 7 -25 25 -78 36 -184 39 -33 1 -51 5 -40 7 46 11 58 39
23 52 -35 13 1 18 58 9 43 -8 51 -12 47 -28 -4 -14 3 -20 29 -26 36 -9 366 -6
381 3 22 13 -40 126 -75 138 -10 4 -18 11 -18 18 0 14 -43 77 -53 77 -4 0 -37
23 -73 50 -36 28 -79 57 -95 66 l-30 15 32 57 c47 85 124 181 189 237 32 28
59 55 59 60 1 6 18 28 39 50 22 22 45 51 53 65 36 63 79 112 142 156 37 27 82
62 100 77 17 15 46 34 62 42 17 8 57 34 90 59 33 25 65 45 71 45 10 1 24 22
24 37 0 12 -48 0 -100 -25 -32 -16 -69 -32 -82 -36 -29 -9 -201 -94 -249 -123
-20 -13 -47 -43 -62 -70 -36 -64 -161 -208 -282 -322 -130 -123 -161 -161
-169 -205 -4 -20 -13 -38 -20 -41 -8 -3 -49 7 -92 21 -114 38 -156 41 -244 16
-41 -12 -84 -26 -95 -31 -60 -27 -76 -21 -89 33 -4 15 -15 35 -26 45 -11 9
-20 21 -20 27 0 11 -87 105 -96 105 -9 0 -171 168 -222 229 -26 31 -65 84 -87
119 -21 34 -43 62 -47 62 -4 0 -31 15 -60 33 -97 61 -355 177 -392 177 -18 0
-16 -5 18 -36z"/>
<path d="M1656 6909 c-3 -8 -44 -257 -91 -554 -47 -297 -102 -645 -122 -772
-20 -128 -40 -230 -43 -225 -4 4 -23 106 -44 227 -130 760 -228 1300 -237
1306 -15 9 -254 -39 -403 -80 l-131 -37 0 -1089 0 -1090 170 0 170 0 4 745 3
745 38 -205 c21 -113 77 -423 124 -690 48 -267 92 -510 99 -540 l12 -55 175
-2 c96 -2 180 0 186 5 6 4 65 341 130 749 65 409 121 743 124 743 3 0 6 -334
8 -742 1 -409 6 -746 11 -751 4 -4 86 -6 182 -5 l174 3 3 1134 c1 624 -1 1138
-6 1143 -9 9 -240 34 -409 44 -100 6 -123 4 -127 -7z"/>
<path d="M9346 6894 c-3 -16 -30 -175 -60 -354 -31 -179 -116 -686 -191 -1128
-74 -442 -133 -807 -130 -813 7 -11 335 -12 351 -1 6 4 21 70 33 147 12 77 27
168 32 203 l11 62 223 0 c123 0 226 -4 229 -8 3 -5 19 -96 37 -203 17 -107 36
-197 43 -201 6 -4 93 -8 194 -8 150 0 184 3 188 14 3 8 -37 259 -90 558 -52
299 -139 800 -191 1113 -53 314 -100 577 -104 585 -10 19 -209 46 -417 56
l-152 7 -6 -29z m360 -1015 c46 -293 82 -534 80 -536 -2 -2 -78 0 -170 3 -148
6 -166 9 -166 25 0 9 29 201 65 425 36 225 73 457 82 516 9 60 18 106 20 104
3 -2 42 -244 89 -537z"/>
<path d="M8760 6885 c-52 -8 -131 -20 -175 -27 l-80 -14 0 -1124 0 -1125 186
-3 c149 -2 189 0 198 11 8 11 10 309 9 1153 -3 1131 -3 1139 -23 1140 -11 1
-63 -4 -115 -11z"/>
<path d="M2655 6778 c-6 -18 -215 -1175 -311 -1720 -42 -241 -74 -444 -70
-453 4 -13 33 -15 176 -15 167 0 171 0 180 23 5 12 20 92 35 177 14 85 27 164
30 175 4 20 8 20 229 10 123 -6 226 -12 229 -15 2 -3 16 -79 32 -170 15 -91
32 -173 37 -182 8 -16 28 -18 198 -18 104 0 191 4 194 8 3 5 -37 224 -89 488
-85 437 -138 712 -255 1339 -22 120 -46 222 -52 226 -6 4 -126 35 -267 69
-141 34 -264 64 -274 67 -9 2 -19 -2 -22 -9z m441 -1504 c-2 -3 -340 26 -342
29 -3 2 114 679 153 892 l16 90 87 -505 c48 -278 86 -506 86 -506z"/>
<path d="M7730 6668 c-19 -6 -98 -27 -175 -47 l-140 -36 0 -995 0 -995 510 0
510 0 0 165 0 165 -220 -2 c-121 -1 -262 -5 -312 -8 l-93 -6 0 885 0 886 -22
-1 c-13 0 -39 -6 -58 -11z"/>
<path d="M6835 6449 c-89 -13 -270 -68 -350 -107 -182 -88 -292 -211 -324
-362 -9 -40 -11 -199 -9 -570 3 -514 3 -515 27 -573 27 -69 102 -149 176 -189
82 -44 188 -69 321 -75 349 -17 566 101 629 342 13 50 15 153 15 661 0 581 -1
604 -21 669 -16 53 -31 78 -68 115 -27 26 -61 55 -77 63 -65 34 -194 44 -319
26z m55 -327 c19 -19 30 -44 35 -73 3 -24 5 -278 3 -564 -3 -499 -4 -521 -23
-554 -58 -99 -279 -110 -336 -17 -18 29 -19 57 -19 559 0 467 2 533 16 563 31
65 129 113 232 114 57 0 67 -3 92 -28z"/>
<path d="M3807 6434 c-33 -10 -64 -32 -105 -72 -99 -97 -96 -74 -100 -769 -2
-501 0 -602 12 -657 46 -196 168 -307 385 -351 103 -21 323 -16 416 9 95 26
176 69 228 121 103 103 117 166 117 536 0 210 -3 279 -12 286 -16 13 -526 68
-536 59 -11 -12 -13 -236 -1 -257 7 -14 21 -19 52 -19 23 0 59 -3 80 -6 l37
-7 0 -171 c0 -188 -8 -219 -63 -260 -24 -17 -43 -21 -115 -21 -96 0 -137 16
-176 68 -21 28 -21 37 -24 581 -1 344 1 563 7 579 17 43 57 62 125 60 103 -3
190 -44 224 -106 12 -24 18 -65 22 -162 l5 -130 115 -17 c63 -9 147 -18 185
-20 l70 -3 3 90 c8 235 -69 386 -254 501 -190 118 -537 187 -697 138z"/>
<path d="M4330 6430 c0 -5 7 -10 15 -10 8 0 15 5 15 10 0 6 -7 10 -15 10 -8 0
-15 -4 -15 -10z"/>
<path d="M4840 5431 l0 -841 178 2 177 3 5 560 5 560 36 -90 c37 -91 325 -803
385 -950 l32 -80 204 0 203 0 3 833 c2 716 0 833 -12 838 -8 3 -88 -3 -178
-13 l-163 -18 -5 -465 -5 -464 -26 64 c-14 36 -78 193 -142 350 -63 157 -136
335 -160 395 l-45 110 -58 7 c-33 4 -120 11 -194 17 -74 6 -159 14 -187 17
l-53 7 0 -842z"/>
<path d="M4608 4593 c-24 -6 -26 -16 -34 -170 -8 -160 -14 -147 86 -180 l65
-21 18 24 c18 23 24 24 136 24 135 0 151 -8 151 -76 0 -62 7 -66 130 -85 188
-29 240 -28 240 4 0 7 21 35 48 63 42 44 56 53 130 74 45 12 106 23 135 22 28
0 107 -1 175 -1 110 -1 124 -3 143 -22 16 -16 19 -28 15 -54 -10 -52 8 -59 96
-39 113 25 232 65 241 80 4 8 23 14 41 14 19 0 38 6 43 13 14 19 -2 284 -19
299 -37 35 -97 34 -174 -2 -38 -18 -78 -35 -89 -40 -89 -34 -279 -82 -400
-102 -104 -16 -451 -16 -525 0 -30 7 -80 18 -110 24 -140 28 -197 47 -360 118
-61 27 -144 42 -182 33z"/>
<path d="M4325 4539 c-22 -4 -100 -8 -173 -8 l-132 -1 -33 -47 c-17 -26 -51
-71 -74 -100 -24 -29 -43 -55 -43 -58 0 -3 -19 -32 -42 -63 -78 -104 -112
-174 -104 -208 3 -12 18 -37 33 -54 24 -29 25 -35 16 -75 -11 -46 -4 -105 22
-200 9 -33 19 -73 22 -90 14 -91 26 -135 38 -145 10 -8 14 -7 18 7 3 10 6 179
6 377 0 324 1 360 17 377 15 17 32 19 145 19 174 0 176 -2 169 -193 -2 -58 8
-109 21 -101 5 3 9 60 9 127 0 67 4 127 8 133 13 20 50 34 91 34 22 0 42 3 44
8 3 4 10 58 16 120 8 80 8 118 1 132 -12 22 -15 22 -75 9z"/>
<path d="M6875 4540 c-27 -5 -95 -9 -149 -9 l-99 -1 6 -92 c3 -51 11 -109 16
-128 l11 -35 142 -1 c134 0 147 -2 201 -27 32 -15 80 -50 107 -77 27 -28 53
-50 58 -50 15 0 23 129 10 154 -6 11 -52 78 -101 149 -100 141 -88 134 -202
117z"/>
<path d="M2000 4230 c-109 -19 -184 -76 -208 -159 -15 -48 -14 -136 1 -178 31
-82 68 -118 280 -267 87 -62 117 -104 117 -164 0 -49 -32 -72 -99 -72 -77 0
-99 22 -103 105 l-3 60 -85 3 c-126 4 -130 2 -130 -62 0 -165 99 -259 287
-273 41 -3 99 0 135 7 119 23 186 75 213 164 45 149 -14 256 -219 395 -133 90
-176 139 -176 198 0 61 24 83 93 83 72 0 90 -15 97 -81 l5 -54 105 0 105 0 -1
57 c-2 70 -17 112 -58 156 -71 76 -207 108 -356 82z"/>
<path d="M6709 4230 c-102 -18 -173 -69 -206 -147 -7 -18 -13 -63 -13 -101 0
-126 47 -187 249 -325 117 -80 161 -131 161 -187 0 -55 -32 -80 -103 -80 -78
0 -97 19 -97 100 0 71 -2 72 -130 68 l-85 -3 -3 -58 c-7 -141 69 -235 216
-266 107 -22 226 -9 314 35 53 27 85 66 104 131 43 143 -17 253 -209 384 -166
114 -213 175 -188 242 13 35 40 47 100 47 63 0 84 -20 91 -88 l5 -47 105 0
105 0 -1 57 c-1 32 -7 72 -14 90 -19 48 -76 104 -130 127 -54 23 -199 35 -271
21z"/>
<path d="M2474 4217 c-3 -8 -4 -45 -2 -83 l3 -69 107 -3 108 -3 2 -412 3 -412
110 0 110 0 3 412 2 412 108 3 107 3 0 80 0 80 -328 3 c-269 2 -328 0 -333
-11z"/>
<path d="M3305 4218 c-17 -53 -214 -971 -210 -979 4 -5 49 -9 101 -9 108 0
101 -7 124 113 l14 68 125 -3 125 -3 13 -65 c24 -123 8 -110 133 -110 110 0
110 0 110 24 0 30 -197 922 -210 954 -9 21 -13 22 -165 22 -116 0 -157 -3
-160 -12z m195 -429 c23 -106 42 -201 43 -209 2 -12 -13 -15 -81 -15 -46 -1
-85 2 -88 6 -4 7 78 420 83 415 1 -1 21 -90 43 -197z"/>
<path d="M3937 4224 c-4 -4 -7 -229 -7 -501 l0 -494 113 3 112 3 0 495 0 495
-106 3 c-58 1 -108 -1 -112 -4z"/>
<path d="M4295 4208 c-3 -13 -4 -237 -3 -498 l3 -475 100 0 100 0 5 328 5 327
124 -330 123 -330 114 0 114 0 0 500 0 500 -100 0 -100 0 -2 -271 -3 -271
-101 268 -101 269 -136 3 c-135 3 -137 2 -142 -20z"/>
<path d="M5645 4219 c-80 -13 -133 -38 -168 -80 -86 -100 -76 -283 19 -356
l35 -26 -37 -30 c-58 -48 -74 -94 -74 -217 0 -133 12 -174 64 -226 31 -32 54
-44 94 -53 99 -21 191 -7 249 39 26 21 28 21 32 3 7 -39 20 -43 133 -43 110 0
110 0 102 23 -4 12 -9 111 -11 220 l-4 197 25 0 c23 0 25 3 28 70 4 86 2 90
-27 90 -22 0 -24 5 -27 53 l-3 52 -110 0 -110 0 -3 -52 -3 -53 -59 0 c-112 0
-140 24 -140 119 0 105 0 105 182 111 l153 5 3 83 3 82 -148 -1 c-81 -1 -170
-5 -198 -10z m205 -667 c0 -110 -2 -120 -22 -139 -36 -33 -126 -35 -158 -3
-17 17 -20 33 -20 109 0 125 23 147 153 150 l47 1 0 -118z"/>
<path d="M7236 4214 c-9 -24 -7 -957 2 -972 7 -9 73 -12 298 -10 l289 3 3 74
c2 50 -1 77 -9 82 -7 4 -87 8 -178 8 -91 0 -169 1 -173 1 -5 0 -8 56 -8 125
l0 124 143 3 142 3 3 83 3 82 -146 0 -145 0 0 120 0 120 183 2 182 3 0 80 0
80 -291 3 c-260 2 -292 1 -298 -14z"/>
<path d="M8105 4218 c-16 -45 -215 -964 -211 -975 4 -11 28 -13 103 -11 l98 3
19 88 20 87 123 0 c140 0 122 13 146 -110 l13 -65 112 -3 c106 -3 112 -2 112
17 0 25 -206 957 -215 971 -10 16 -314 13 -320 -2z m194 -426 c23 -106 41
-201 41 -211 0 -17 -9 -19 -80 -19 -44 0 -82 4 -86 9 -5 8 76 422 82 416 1 -1
21 -89 43 -195z"/>
<path d="M8735 4218 c-3 -7 -4 -231 -3 -498 l3 -485 283 -3 283 -2 -3 82 -3
83 -167 3 -168 2 0 399 c0 220 -3 406 -6 415 -5 13 -25 16 -110 16 -75 0 -106
-4 -109 -12z"/>
<path d="M6303 3966 c-56 -23 -105 -45 -109 -49 -4 -4 -18 -7 -31 -7 -25 0
-32 -24 -9 -37 28 -17 36 -51 30 -135 -5 -71 -9 -86 -30 -106 -25 -24 -30 -47
-15 -71 7 -10 21 -12 55 -8 80 11 300 68 314 81 7 6 13 39 15 72 2 49 -2 65
-23 94 -58 82 -53 79 -151 73 -57 -4 -89 -2 -89 4 0 6 35 11 82 12 45 1 85 4
90 7 20 12 2 116 -20 113 -4 0 -53 -20 -109 -43z"/>
<path d="M5043 3878 c-4 -7 -9 -84 -10 -171 -3 -189 -3 -190 103 -201 38 -3
101 -10 139 -15 39 -5 74 -5 79 -1 4 5 12 45 16 89 7 66 14 89 40 125 l31 46
-21 39 c-11 22 -28 42 -37 45 -10 3 -72 8 -138 11 -76 4 -126 11 -135 20 -24
21 -57 27 -67 13z"/>
<path d="M6293 3326 c-124 -37 -143 -47 -143 -81 0 -47 -22 -53 -210 -58 -251
-6 -359 -27 -329 -64 17 -19 10 -22 -44 -16 -43 5 -48 8 -43 27 4 18 -4 25
-57 47 -54 23 -80 27 -209 32 -81 3 -156 11 -168 17 -11 6 -30 8 -40 5 -25 -8
-38 -54 -19 -66 21 -12 9 -17 -61 -24 -51 -5 -61 -4 -47 5 14 9 16 15 6 26 -9
11 -39 14 -124 14 -98 0 -114 -2 -129 -19 -27 -30 -22 -79 19 -174 40 -92 50
-105 86 -112 73 -15 287 -48 369 -58 134 -17 631 -15 750 2 52 7 122 17 155
22 53 7 140 21 231 36 37 6 64 48 116 178 63 158 80 232 62 279 -9 23 -44 19
-171 -18z"/>
<path d="M3593 3182 c-7 -4 -22 -30 -35 -57 -20 -43 -23 -64 -21 -160 1 -106
1 -111 -31 -170 -45 -82 -56 -136 -55 -263 1 -183 27 -177 85 18 20 68 52 163
71 210 44 108 78 214 85 264 3 17 5 18 18 5 71 -71 109 -56 154 63 10 26 16
58 14 70 -3 22 -6 23 -138 26 -74 1 -140 -2 -147 -6z"/>
<path d="M7131 3171 c-16 -29 45 -183 79 -201 27 -15 66 -12 80 5 22 27 30 16
30 -40 0 -71 15 -105 83 -193 81 -106 87 -132 60 -304 -10 -64 21 -47 67 38
61 109 59 140 -12 281 -35 68 -59 129 -63 159 -3 27 -11 84 -17 128 l-11 78
29 23 29 23 -28 11 c-16 6 -93 11 -172 11 -130 0 -145 -2 -154 -19z"/>
<path d="M4927 2704 c-19 -19 0 -50 76 -124 45 -45 107 -97 137 -117 30 -20
57 -39 60 -42 3 -3 20 -14 38 -23 17 -10 44 -25 60 -33 15 -8 54 -27 87 -40
33 -14 68 -30 77 -35 26 -14 54 -12 68 5 7 8 21 15 30 15 10 0 49 16 87 36 37
20 86 46 107 57 21 11 54 35 72 53 18 18 45 36 59 40 15 4 29 13 32 21 3 9 18
20 32 27 38 16 170 119 170 132 2 25 -26 35 -66 25 -106 -27 -526 -57 -663
-47 -245 18 -347 30 -430 51 -14 3 -29 3 -33 -1z"/>
</g>
</svg>
